# xmcd
#
# Track frame offsets: 
#        150
#        18160
#        40533
#        52995
#        67003
#        79924
#        97570
#        117158
#        136318
#        157863
#        169784
#        182679
#        193678
#        212522
#        221983
#
# Disc length: 3118 seconds
#
# Revision: 1
# Processed by: cddbd v1.5.2PL0 Copyright (c) Steve Scherf et al.
# Submitted via: ExactAudioCopyFreeDBPlugin 1.0
#
DISCID=bf0c2c0f
DTITLE=Kelly Flint and David Cantor - Dave's True Story
DYEAR=2002
DGENRE=Jazz
TTITLE0=Marisa
TTITLE1=Joey
TTITLE2=Blue Moon
TTITLE3=Fever
TTITLE4=Can't Get You Out Of My System
TTITLE5=Flexible Man
TTITLE6=Another Hit
TTITLE7=Nadine
TTITLE8=Like A Rock
TTITLE9=Crazy Eyes
TTITLE10=Sequined Mermaid Dress
TTITLE11=Mad About You
TTITLE12=Last Go 'round
TTITLE13=Sommes Bleues
TTITLE14=Crazyeyes ('02 Remix)
EXTD=YEAR: 2002
EXTT0=
EXTT1=
EXTT2=
EXTT3=
EXTT4=
EXTT5=
EXTT6=
EXTT7=
EXTT8=
EXTT9=
EXTT10=
EXTT11=
EXTT12=
EXTT13=
EXTT14=
PLAYORDER=
